<?xml version="1.0" ?>
<svg baseProfile="tiny" height="120" stroke-linecap="round" stroke-linejoin="round" version="1.2" viewBox="0 0 120 120" width="120" xmlns="http://www.w3.org/2000/svg">
	

	<g id="dep_reu">
		

		<path d="M 8.1844 56.3315 7.0009 55.6316 6.6032 54.9064 3.9006 52.843 1.7197 49.6673 1.9179 45.9143 2.3128 44.9954 1.1446 43.1052 1 41.5644 2.5286 40.0757 4.2222 37.906 6.6659 38.1657 9.8303 36.473 11.5749 34.9712 12.8096 32.8049 13.2908 29.7387 13.2339 28.2679 12.3306 25.8632 12.3511 24.4498 13.9944 21.6522 13.4971 20.5981 13.3681 19.2149 14.5287 18.4207 16.3322 19.3717 18.0595 19.6955 19.9287 19.4503 20.2241 20.346 21.2861 20.796 21.3224 19.4885 22.3858 19.2848 25.0944 18.0196 26.2752 16.1327 28.6437 14.6184 29.9484 13.172 32.5163 11.6841 34.4219 9.9411 37.3906 9.1143 39.5261 8.3155 40.4369 8.2895 42.835 8.7555 45.246 7.7964 46.31 8.7853 48.7413 10.2242 52.3774 10.5335 54.6593 9.8133 55.4947 9.7999 58.1277 10.8819 61.4475 11.5569 62.6171 12.2241 64.2463 12.3363 65.7677 11.5631 68.5342 11.9424 69.7281 12.6414 72.0408 12.387 76.2985 14.6905 77.8497 15.3674 79.1136 15.3037 81.2008 15.7437 83.4911 16.6805 86.0161 18.2158 86.8546 19.6031 89.4962 22.1061 91.0566 24.879 92.076 26.2249 92.8017 28.824 92.9095 33.9033 93.2375 36.5197 94.2929 38.9175 96.0922 39.6062 97.3609 41.1734 97.8796 42.4294 98.9989 43.4026 98.7302 44.9539 99.9739 47.407 101.8733 49.6431 103.8739 51.6813 104.7492 53.4648 106.8071 55.3058 108.5209 58.2439 109.3162 58.653 110.7424 58.4509 111.8829 58.895 113.3959 60.2123 113.8471 60.9961 115.2805 61.2439 117.0344 62.4615 117.2829 63.7874 118.6493 65.8358 118.2292 66.6622 118.4681 68.8186 119 70.0093 118.1062 70.8723 116.9787 70.8159 116.7876 71.5149 116.9437 73.7288 116.3465 75.0459 114.7929 76.5304 114.5445 78.0216 113.7589 79.1782 113.693 81.505 113.0855 82.9503 113.0463 84.1019 112.499 86.2808 112.9777 88.2708 112.7972 89.2221 113.8129 91.4634 113.2835 92.4919 112.9824 95.833 113.5116 99.4541 114.0186 100.2173 113.6983 101.1853 111.5051 104.1944 110.2711 104.9751 108.915 106.2787 107.4863 107.1787 104.0661 106.7591 102.384 107.8879 98.9483 108.1015 96.1356 109.2887 93.8881 109.6489 89.8451 109.221 87.9754 111.1228 85.6431 110.9031 83.0366 112.2036 81.9271 111.0334 79.6012 110.9271 78.095 111.4993 76.2487 111.8652 74.8078 111.0975 74.3526 110.3635 72.6016 109.6773 71.9751 108.8394 71.1254 108.919 69.0542 109.7644 67.314 108.9589 65.8578 108.7435 65.2409 109.1703 63.9505 108.0148 62.5124 107.2305 59.9541 106.7661 57.3732 105.5498 56.5781 105.4444 55.6206 104.6824 52.2179 104.4779 51.2435 103.4547 49.7616 103.5261 47.7385 102.8778 46.6415 101.5634 46.7173 100.7846 45.7569 100.2801 42.0172 99.8688 39.6553 98.6245 38.5025 97.5007 37.9333 96.1125 35.7009 93.738 34.0373 92.7712 32.3314 92.128 29.8305 91.5137 25.5048 90.9051 23.9927 90.2595 23.3611 89.1585 22.9719 86.3227 21.033 84.9662 20.9719 84.2462 19.6681 83.5706 19.2476 82.6834 18.3156 81.9545 17.5161 81.9016 15.7906 80.4836 15.7104 79.4489 15.0343 78.4816 14.4004 76.1745 13.4085 75.0128 14.1354 73.7216 14.6464 71.1317 14.3435 67.5783 14.5004 66.6024 13.4649 65.1397 11.7553 64.4857 11.2946 60.6026 9.4505 59.0045 7.9544 56.9491 8.1844 56.3315 Z" data-anchor-x="60.0" data-anchor-y="60.0" data-fill-id="974" data-name="La Réunion" id="974"/>
		

	</g>
	

</svg>
