<?xml version="1.0" ?>
<svg baseProfile="tiny" height="120" stroke-linecap="round" stroke-linejoin="round" version="1.2" viewBox="0 0 120 120" width="120" xmlns="http://www.w3.org/2000/svg">
	

	<g id="dep_myt">
		

		<path d="M 27.6218 32.9843 27.4142 31.5732 28.5583 30.1937 30.2299 29.626 32.5991 26.0722 31.6716 24.4761 27.409 23.9161 29.1638 21.8949 30.4146 19.0492 29.9162 17.4482 35.287 16.5618 37.7704 13.1425 37.5894 11.4833 39.6583 10.6557 41.1213 9.2759 40.7547 6.8782 41.8252 5.2351 43.3835 4.7645 45.6278 2.4235 47.9045 1 47.2477 3.6947 42.8189 5.9504 43.4482 7.0663 45.7162 7.2594 47.5957 10.9017 49.465 10.7445 50.7904 11.8283 50.4757 13.5197 51.2411 14.7767 55.8057 16.9841 54.515 18.5091 54.8516 20.4696 56.5631 21.7068 56.9427 24.1107 55.4608 24.8309 56.9829 27.0235 59.2757 27.0622 60.7821 28.0036 62.3318 26.0969 63.7385 26.5198 63.7135 28.3603 65.1422 29.0673 67.5758 27.0752 68.0677 23.34 69.0023 22.5888 70.9703 25.8763 73.5051 26.8122 74.6491 25.7417 75.7131 26.6671 78.1881 27.0374 81.6028 26.875 82.4529 28.218 84.0691 28.7331 84.7436 30.521 87.3557 31.7487 89.0205 31.6333 89.9557 33.7321 92.1984 34.2593 92.591 37.0706 91.601 42.6014 91.6994 45.0535 89.4462 46.0015 87.9735 47.7461 85.9059 48.9251 85.4743 51.2158 83.7081 52.7627 81.5663 53.7106 81.3432 57.6103 78.8672 58.6285 77.9462 61.0881 79.0448 62.0917 76.6669 63.9526 77.824 65.4098 79.3031 69.4859 80.4754 69.2656 80.7532 72.1249 83.0371 72.545 83.6113 74.3172 84.9159 75.8966 86.5983 75.1308 85.5226 79.0411 86.2515 79.6524 83.8773 82.0173 80.5524 83.2335 79.2258 84.1917 78.1083 87.4961 79.2833 89.8586 78.5845 90.9634 76.1796 90.5726 74.9644 91.7498 75.1011 93.3422 73.3906 93.788 72.1308 97.0247 73.4095 98.3702 73.3067 99.786 71.0659 99.1991 69.9472 99.6761 69.7662 101.9151 71.8808 104.2212 72.4785 107.2501 75.0996 108.9281 77.0304 109.3297 78.0984 110.6795 81.3778 110.3525 80.0692 112.5485 77.6142 114.8596 74.6624 113.6845 73.5425 114.1344 72.6759 115.9798 70.2405 111.263 68.9835 110.5951 66.2702 111.0403 65.451 112.4257 66.0765 115.3004 63.6027 118.8722 60.749 119 59.8834 116.4928 58.0772 115.8168 56.6244 117.377 55.0573 116.0463 55.6142 114.7247 55.1146 113.2706 52.0802 112.598 50.4129 114.1997 49.4399 113.0992 48.8759 110.3689 50.27 108.1228 50.2904 105.6097 48.3296 104.6454 45.8638 106.937 44.1118 107.7014 40.9066 105.89 42.6707 104.1999 44.4728 103.6517 46.7517 101.0581 47.3052 97.4774 48.1155 96.1718 46.7709 93.8759 42.9894 94.5615 42.1961 92.4806 41.1161 92.4939 40.1953 90.6868 39.0791 86.7663 37.0121 84.7594 39.4426 84.3207 44.1096 84.2053 46.2976 84.4887 47.4317 85.9904 47.1917 88.807 47.5054 91.1465 48.5817 92.8828 54.6186 94.8984 55.1359 96.3788 57.2583 97.2936 61.8637 97.2299 63.9669 95.4274 64.9259 93.5148 64.5671 90.6695 61.4634 86.5173 62.006 85.2504 58.9376 81.4026 57.4173 81.0629 56.6819 79.6091 54.8318 78.7896 52.9984 77.0239 50.4429 72.5039 48.126 72.3415 46.8582 71.5018 45.0207 69.0992 47.5338 65.6202 48.7386 66.0475 51.8639 65.8213 53.1602 64.2425 50.7458 63.251 47.6706 62.8946 46.9504 62.2996 48.6708 57.4591 48.5857 55.3819 46.5649 53.2673 46.8455 49.9083 50.9209 48.6284 49.9374 47.7637 48.4874 48.3064 45.6008 47.8961 45.6203 45.4737 47.3253 43.8101 47.8274 41.2912 46.6821 38.8576 43.8977 40.3593 42.3616 38.8526 40.2495 38.3709 38.1677 38.8211 33.3389 33.9883 31.3369 34.3527 28.8823 34.1068 27.6218 32.9843 Z" data-anchor-x="60.0" data-anchor-y="60.0" data-fill-id="976" data-name="Mayotte" id="976"/>
		

	</g>
	

</svg>
