<?xml version="1.0" ?>
<svg baseProfile="tiny" height="120" stroke-linecap="round" stroke-linejoin="round" version="1.2" viewBox="0 0 120 120" width="120" xmlns="http://www.w3.org/2000/svg">
	

	<g id="dep_guf">
		

		<path d="M 31.2579 5.1835 30.9782 4.4433 31.0766 3.708 31.7898 2.5164 31.9942 2.0304 32.4217 1.3763 32.5089 1.0624 33.0689 1.1201 33.3593 1 34.3529 1.2405 34.8541 1.4624 36.2115 1.5322 37.5191 2.0473 38.0204 2.1099 38.0057 1.781 38.5463 2.0205 40.065 2.924 40.4964 3.0191 41.0458 3.4528 42.0264 4.035 43.48 4.7445 44.4632 5.4404 45.1973 5.565 45.5902 5.8224 47.4281 6.5575 48.6001 6.9518 49.1348 6.8728 50.7438 7.0192 52.0598 7.4279 53.2223 7.6625 53.622 7.8612 54.3827 7.8238 54.2977 7.2627 55.13 7.1382 55.4729 7.5517 56.3588 7.7483 57.8575 8.3172 58.3755 8.3901 59.7976 8.9564 59.9978 9.2384 61.651 10.2042 63.4966 10.6036 64.1054 11.3636 64.2293 11.2822 63.8547 10.6894 64.0637 10.4632 64.5708 10.6642 64.8971 10.5767 65.4684 10.8443 65.7165 11.0995 66.0856 10.9142 66.4682 11.4442 67.0524 11.7943 67.3408 12.1077 68.6769 13.155 69.4227 14.2712 69.4262 14.5832 70.2942 15.0554 70.856 15.441 70.9557 15.7646 71.5748 16.4681 72.9562 17.7215 74.0387 18.4796 74.8051 18.9318 75.118 19.3996 75.8157 20.0957 75.8872 20.5598 76.6927 21.0128 77.7221 21.9635 78.3691 22.1533 78.4933 22.571 78.8151 22.4612 79.3781 22.9821 79.642 23.1078 80.5092 24.1076 81.2218 24.6969 81.4767 25.0333 82.4703 25.764 82.9678 26.3269 83.3593 26.5752 83.767 27.2339 84.582 28.0052 84.3931 28.3237 84.6024 28.6013 85.2487 28.394 85.5513 27.8889 85.4424 27.4851 85.6441 27.2759 86.0646 27.258 86.6153 27.0168 87.9302 28.2592 87.9612 28.7708 88.429 29.1109 88.5127 29.3806 88.1083 30.0499 87.8255 30.2309 87.3661 30.1694 87.5864 30.5964 88.1719 30.6364 88.5465 30.416 88.8291 30.0402 89.4969 30.01 89.9007 30.2689 90.4762 31.2678 90.7989 31.3291 91.2368 31.6516 91.6423 32.1983 91.9057 32.0353 92.8613 32.4315 93.147 32.8597 93.597 32.982 93.9601 33.4142 94.7745 33.8447 95.4 34.2743 95.673 34.6568 95.8572 34.5897 96.1799 35.0017 96.3415 35.6649 96.5497 37.491 96.698 37.9288 97.0162 38.3254 97.5185 39.1941 97.6543 39.975 97.8686 40.5657 97.9283 41.2007 97.8701 42.0174 98.1193 43.2687 98.1643 44.2188 98.0766 44.5526 98.5996 44.6997 98.8023 44.1563 98.9303 43.2186 98.772 41.7491 98.7324 40.5559 98.8038 39.775 98.811 37.9179 98.8544 37.1789 99.1675 36.2005 99.3998 35.9882 99.8224 35.9399 100.433 36.0986 100.9232 36.0945 101.3366 36.455 101.7616 36.6712 102.2246 37.3064 102.9581 37.962 103.4319 39.195 103.5 40.153 103.751 41.014 103.8142 41.7027 103.7002 41.999 103.9111 42.6215 104.6327 43.4437 104.4061 44.111 104.8741 44.6937 105.8372 45.3235 106.4427 45.0878 106.4 45.5052 105.9393 45.7193 105.5605 46.4939 105.6529 47.1876 106.1352 48.3473 106.5459 48.9358 106.8261 49.1582 106.97 49.6713 107.4536 49.9928 107.5734 50.3424 108.0966 50.973 108.3079 51.3932 108.5835 51.5757 108.3019 52.1837 108.2165 53.581 108.0651 54.1321 107.8845 55.3244 107.6115 56.1542 106.9709 56.7327 106.1086 57.1111 105.8951 57.3165 104.6895 57.8517 103.7106 58.6622 103.4963 59.0636 103.528 60.3242 102.9628 61.5648 102.1927 62.1853 102.1538 62.4846 101.7155 62.7427 101.0794 63.3237 100.5053 64.2799 99.506 64.9989 99.0734 64.9691 98.7902 65.4406 99.1318 66.1439 98.8422 66.9031 98.4961 66.9951 97.8379 66.9602 97.289 67.4454 97.1214 68.0998 96.834 68.5256 96.8208 69.1102 96.607 69.4739 96.7579 69.9943 96.3077 70.5664 95.7666 71.0671 94.3992 73.4875 94.074 73.5357 94.0918 73.8943 93.7765 74.3554 93.5589 74.4436 93.3253 74.9145 93.284 75.3455 92.8455 75.6923 92.4162 76.5788 91.4917 78.1368 91.0881 78.9379 90.8381 79.1607 90.6021 79.7219 90.2978 79.9385 90.2186 80.5222 89.5192 81.321 89.1032 82.0794 88.7647 82.511 88.4682 82.6182 88.2283 82.1803 87.8898 82.1105 87.3829 82.6966 86.8434 82.9714 86.8155 83.2702 86.5094 83.8294 86.6183 84.5346 86.1906 84.6312 85.6389 84.9218 85.4502 85.3903 85.4953 85.9443 84.9936 85.92 84.8745 86.2251 85.3374 86.5256 85.1206 86.8083 85.1116 87.1438 85.717 87.7045 85.6898 88.001 85.1069 88.938 84.8799 89.5683 84.5655 89.7577 84.4235 90.4648 84.2682 90.6077 84.2868 91.0928 83.8777 91.9165 83.4904 92.5344 83.7109 92.9877 84.04 93.084 83.6464 93.6142 82.6761 93.7764 82.163 94.7304 81.8564 95.1737 81.5893 95.8925 80.9248 96.9948 80.7698 97.416 80.8583 97.982 80.3353 99.1076 80.0555 99.3488 79.8351 100.0548 79.3918 100.6137 79.0961 101.6081 78.6815 101.5311 78.2406 101.9984 78.5682 102.2802 78.5786 102.8103 79.0118 103.3172 79.1624 103.8529 78.8092 104.3683 78.4008 104.529 78.0733 105.0103 78.3612 105.8489 77.9203 105.9972 77.1541 106.7719 76.8615 107.3246 76.235 107.3122 76.079 107.7539 76.4144 107.9673 76.2474 108.288 75.5848 108.3179 75.2689 108.7239 75.3217 109.1718 74.9615 109.5708 74.8028 110.6099 73.1866 111.102 72.9669 111.5864 72.2155 111.8069 71.9112 112.0677 70.885 112.4714 70.4914 112.8323 69.644 113.1752 68.8736 113.2875 69.0015 113.6095 68.3425 113.6923 68.4848 114.1805 67.8786 114.3583 67.8677 114.7348 67.4578 115.178 67.388 115.4792 66.8392 116.6157 65.8518 116.427 65.7299 116.8687 64.1069 117.2644 63.8158 117.002 63.3142 116.9449 62.5676 116.6612 62.0229 116.5676 61.3147 115.6296 60.3731 115.3982 59.0046 115.6071 58.6506 115.5341 57.8006 115.7988 56.8709 115.8877 56.3989 116.1935 56.0275 115.8954 55.7282 115.8679 55.1286 116.5792 54.7391 116.5203 54.7549 115.6783 55.1339 115.5896 55.4972 114.8867 55.9345 114.648 56.315 114.1521 55.3644 113.9538 55.2145 113.4257 54.5553 112.9345 54.03 112.8079 53.7103 112.5562 53.2499 111.7618 53.0244 111.7507 52.6001 111.2886 52.1024 111.4173 52 112.0925 51.5743 112.5539 50.6758 112.826 50.2838 113.3906 49.6571 113.3434 49.1993 113.8515 48.883 114.3459 48.4123 114.5298 47.918 114.2011 46.5512 114.4956 45.8692 114.5081 45.4374 114.1127 44.5167 113.9614 43.9867 113.5892 43.5605 113.836 43.2139 113.6098 43.0282 113.7218 42.2734 113.6268 42.3553 113.0106 41.7656 112.9049 41.2196 113.1125 41.1284 112.6915 40.7269 112.7809 39.9217 112.602 39.435 112.6452 39.3112 112.311 39.7461 112.2586 39.6196 111.9017 40.0198 111.6947 40.1904 111.335 39.6241 110.9723 39.653 110.7969 38.7161 110.5003 38.1791 110.9665 37.707 110.9552 37.3797 111.1966 37.2903 111.6174 36.4654 111.9129 36.6586 112.1975 37.12 112.2429 37.1778 112.5682 36.59 112.6835 36.3535 112.8788 35.5016 112.8017 34.8993 112.6594 34.7496 113.0545 34.8754 113.355 34.8164 113.7538 33.8436 114.1774 33.8125 113.647 33.2344 113.9362 32.9831 114.2589 33.261 114.9864 32.9868 115.1278 33.0203 115.518 32.2936 115.5606 31.9404 115.98 31.405 115.8889 30.9416 116.2615 30.5423 116.7515 29.9798 116.5597 29.5536 116.6194 28.9196 116.2859 28.6978 116.8722 28.3973 117.2875 28.0124 118.1242 27.5785 118.7444 27.3938 118.8543 26.9008 118.6452 26.4123 119 25.5422 118.4483 25.3999 117.9876 24.8419 117.1041 24.0168 117.5173 23.7363 117.7999 22.6451 117.6458 22.326 117.9752 21.6401 117.8655 20.8996 117.5457 19.8889 117.7265 19.8131 117.436 19.1986 116.8208 19.2259 116.3283 19.4642 116.0208 19.2126 115.7784 18.6522 116.0733 18.3001 115.9911 18.0785 116.2553 17.3053 116.1379 17.3777 115.7692 16.9322 115.7086 16.3952 116.0394 15.4395 115.6246 15.5015 115.3234 15.201 115.0662 14.8538 115.073 14.8628 114.5703 14.5548 114.3633 13.9827 114.4589 13.828 114.1611 13.5564 114.1748 13.4465 113.7924 13.8537 113.5874 14.0979 113.2469 13.6303 113.141 13.4675 112.7269 13.658 112.3356 13.3259 112.0251 12.2644 112.0065 11.8915 112.1875 11.4165 111.7019 11.7792 111.2054 12.1484 111.2785 12.4575 111.1349 12.8295 111.2171 13.5821 111.5529 13.636 111.8058 14.4079 111.7085 14.5536 111.5283 14.3589 110.9498 14.5747 110.3822 14.5758 109.94 14.8675 109.4714 15.213 109.2557 15.5645 108.4729 16.7907 108.6673 16.9213 108.4949 17.3723 108.4608 18.0655 107.624 18.4358 107.3755 18.3706 107.0386 18.9054 106.6979 18.9963 106.1234 19.5552 105.8114 19.8657 105.0266 19.8727 104.3543 20.2856 104.1494 20.3711 103.585 20.607 103.3304 20.5721 103.0316 21.0456 101.795 21.5929 101.2019 21.8793 101.1313 22.13 100.7245 22.0245 100.4629 22.1844 100.1632 22.4685 99.1557 23.8246 98.1768 24.309 97.3539 24.2213 97.0233 24.6421 96.5583 24.3929 96.0793 24.323 95.6679 25.0224 95.4723 25.202 94.5848 24.8846 94.4243 24.7402 93.9244 25.0514 93.2941 25.053 92.878 25.4634 92.2005 25.3757 91.5632 25.8112 91.0858 25.3873 90.9895 25.079 90.249 25.5774 89.9661 25.5882 89.6843 25.0865 88.5048 24.776 88.0662 25.4669 87.6515 25.2189 87.2397 25.4506 86.8073 25.2933 86.2006 24.876 85.8045 24.6547 86.167 24.2348 86.0382 24.2759 85.5398 24.1471 85.2797 24.5771 84.9607 24.4762 84.727 24.9709 83.4867 25.4214 83.4961 25.8157 82.7307 26.1293 82.629 26.2007 82.1788 26.4158 82.0476 26.6989 81.5535 27.1717 81.3649 27.299 80.9496 27.5109 80.8867 27.8719 80.4411 28.5113 80.6995 28.8702 80.3681 29.0796 79.928 29.1267 78.7674 29.4116 78.3986 29.2299 77.9119 30.0458 77.0557 30.4875 76.8252 30.7677 76.3369 30.5418 76.0403 30.6125 75.3635 30.9051 75.0048 30.9004 73.7509 31.174 73.1833 30.8728 72.8138 31.0312 72.0002 31.2082 71.6649 31.6025 71.3606 31.8185 70.586 31.4593 70.1369 31.4438 69.8826 31.0437 69.2055 30.6767 69.0876 30.0421 69.6606 29.4833 69.4634 29.5372 68.9842 29.3037 68.7476 28.4869 68.2955 28.386 67.7011 28.6163 67.2552 28.4301 66.6896 28.1253 66.442 27.9052 65.7679 27.5285 65.2759 27.2536 64.505 26.9505 64.2122 25.8022 64.0364 25.1242 64.1972 24.6476 63.8439 24.6953 63.3174 24.9991 63.0044 24.7996 62.5337 23.6657 62.3462 23.4829 62.2342 23.0493 61.3776 22.9499 60.9926 23.0876 60.6613 21.9976 60.0727 21.5713 59.3686 21.367 58.5192 20.8614 57.2114 19.9662 56.2217 19.5695 56.0936 19.7574 55.3111 20.0694 54.7716 19.9411 54.4731 20.011 54.0027 20.7104 53.2753 20.632 52.8142 20.1314 52.633 19.9089 52.3651 19.302 51.9581 18.6205 51.8549 18.3261 50.9988 18.4705 50.5795 18.5927 49.6974 18.7924 49.1299 18.4346 48.2526 18.4035 47.7229 18.5169 46.599 18.6451 46.1813 18.41 45.824 17.7889 45.4819 17.246 45.7204 16.8651 45.6286 17.0592 45.2141 17.188 44.191 16.8643 43.4504 17.1345 43.0499 17.1888 42.4731 16.6237 40.5883 16.9816 40.0814 17.4543 39.6475 17.497 39.0808 17.667 38.9124 17.7703 37.9754 17.0367 36.7994 17.1827 36.3779 17.5046 36.0553 17.4233 35.4816 17.1919 35.0206 17.3961 34.4492 17.1314 34.1286 16.3776 34.0929 16.1284 33.6341 16.3396 32.403 16.2107 32.0591 16.0896 31.1943 16.1649 30.8986 16.0625 29.6197 16.1386 29.3247 16.0245 28.6687 15.7443 28.3458 16.0672 27.9391 16.8171 27.2979 17.0243 26.7273 17.0429 26.1086 16.9187 25.6227 17.1477 25.4061 17.1004 24.6244 17.5056 24.0834 17.7889 23.2784 17.8402 22.4392 18.3657 22.1939 19.1523 21.6929 19.5002 20.7178 19.9658 20.5276 20.1067 19.951 20.5143 19.4776 21.2115 18.294 21.3621 17.8903 22.0889 17.1174 22.3178 16.6866 23.0576 16.1059 23.5832 15.9173 23.9892 15.5152 24.6195 15.3747 25.0014 14.8716 25.4152 14.7257 25.7423 14.1291 26.6005 13.4562 27.0978 12.7426 27.2898 12.1759 27.6012 11.683 28.3524 10.9961 29.3612 9.6364 29.8942 9.2907 30.2207 8.6845 30.8296 8.3194 30.9793 8.0512 31.2934 6.8723 31.2383 6.1189 31.2579 5.1835 Z" data-anchor-x="60.0" data-anchor-y="60.0" data-fill-id="973" data-name="Guyane" id="973"/>
		

	</g>
	

</svg>
