<?xml version="1.0" ?>
<svg baseProfile="tiny" height="120" stroke-linecap="round" stroke-linejoin="round" version="1.2" viewBox="0 0 120 120" width="120" xmlns="http://www.w3.org/2000/svg">
	

	<g id="dep_mtq">
		

		<path d="M 24.6285 50.8844 24.108 49.8495 22.7074 47.9951 21.0956 44.6145 20.481 42.6009 21.1565 39.0166 21.7848 36.6657 22.2245 35.9548 22.3733 33.8435 21.5694 32.4432 19.9974 30.565 18.6735 29.3473 17.1294 28.438 16.0093 26.0704 15.4193 25.3068 13.2708 24.7696 12.1683 23.0505 11.4144 21.0264 10.3202 20.0908 10.4294 18.7584 9.7379 17.2845 9.7187 14.9372 10.3829 13.4423 10.3523 12.6149 11.1277 11.1191 12.0556 10.011 11.9719 9.4571 13.1975 8.3426 13.9671 6.3984 15.0553 5.2248 16.2613 5.1008 18.28 3.9843 20.5769 2.9587 21.1711 1.9569 21.9214 2.1845 24.7875 1.3863 27.5193 1.4167 28.8688 1 29.9607 1.4362 31.2499 1.364 32.016 2.016 34.2577 2.1568 35.5015 3.0245 36.8904 2.939 39.6785 4.5987 40.8043 4.7877 41.134 5.4708 42.541 6.8629 44.9669 7.619 46.0553 8.9437 47.4284 9.5153 48.8513 9.5507 49.566 10.969 50.9177 11.8538 52.0563 12.1265 54.0146 10.9952 55.0484 12.4272 55.6937 12.7513 56.7627 12.436 57.2604 13.3772 56.8337 14.4242 58.5047 14.4838 59.4093 15.583 59.33 16.9292 60.5112 18.1812 61.3979 18.3714 62.2326 17.9525 64.0561 18.0534 63.4587 18.7739 63.1315 20.085 63.6374 20.8694 64.674 21.5157 64.6689 22.3639 65.8472 23.5313 66.4753 23.5535 66.8754 24.8671 68.4502 26.2045 69.565 27.5642 70.5405 27.7811 70.6441 28.7706 72.1259 29.8541 72.1512 31.1945 72.8517 32.5975 73.6341 35.1277 74.5489 35.5069 75.3732 35.1009 75.7755 32.6723 77.5611 30.3974 79.8311 29.7999 80.5192 29.1118 82.3093 29.1791 82.971 29.9814 85.4332 28.9904 85.5134 28.2664 87.7318 27.8655 87.9951 27.1599 90.0955 26.232 90.9404 24.68 92.3095 25.3462 93.9612 25.7626 94.6325 26.491 93.9745 28.1429 94.7974 29.5951 93.2846 29.8395 92.6102 29.2163 92.2453 27.6554 90.7898 27.7302 89.219 28.8507 89.2371 30.1466 90.5649 30.4574 91.0453 31.1653 90.5492 32.5357 89.8641 32.152 88.5572 33.2517 88.7383 33.9352 90.5742 34.4559 89.2648 35.6767 88.1509 35.8176 87.7577 35.1848 85.7541 35.4582 85.5661 33.6901 84.1527 32.816 83.5509 32.8789 82.3299 31.8633 80.9968 32.2366 79.4756 32.1109 77.6953 35.009 77.757 36.2728 77.4117 37.6481 77.5808 38.4567 78.3818 39.0478 78.5114 40.9445 80.7254 40.279 80.2883 41.8397 81.2222 42.7654 82.4184 42.4029 84.4761 41.2074 85.2448 42.6183 84.9599 43.5057 86.3851 44.458 87.6134 44.361 86.4614 45.7439 84.5499 45.7507 83.6151 46.8655 82.2424 47.0014 80.8786 48.2116 79.8028 48.4162 79.3314 50.4965 78.2149 51.1638 78.4921 52.3434 80.0618 52.9421 80.8135 54.8981 82.2581 56.2994 83.5443 56.1362 84.6535 55.3671 83.7475 54.6712 84.709 53.2224 85.6688 52.6633 86.2706 53.5024 87.0019 52.4576 88.6537 53.978 90.4788 53.5317 91.1726 52.5402 92.6228 52.7649 92.4461 54.2342 91.7948 55.8203 89.3616 56.9065 88.8842 55.6859 87.2392 57.4615 88.5672 57.6134 90.0585 59.5695 89.9321 60.3085 90.6574 61.2269 89.1813 61.7324 89.0516 63.7442 91.8063 64.0852 92.6394 64.5842 94.1392 63.4077 95.5759 64.3254 93.4818 65.5763 95.9704 67.4418 95.2311 69.6311 96.0968 70.7456 97.3216 71.4612 98.3881 71.4778 99.8465 70.4536 100.8275 71.1264 100.2501 74.259 99.5394 75.2345 100.1843 76.64 100.7726 75.9589 101.6128 77.2143 101.5043 78.058 101.981 79.0583 103.125 78.5814 103.5155 77.6976 104.6945 76.9034 105.438 78.3357 103.8877 79.6488 103.6216 81.4342 104.9867 81.9532 106.2926 83.9571 105.5287 84.2497 104.3115 84.045 103.8786 85.2323 105.9943 85.4903 105.7641 86.2127 104.2849 87.5327 104.1773 89.5503 104.4653 90.7204 106.0036 90.3527 106.8084 89.46 107.3526 90.5181 106.9904 91.6649 107.0692 93.34 107.5977 94.7431 109.0747 94.807 109.2237 96.3259 110.2813 98.0036 108.9536 99.6792 108.0414 98.839 106.9689 100.1262 107.9035 100.2739 109.4493 102.7414 107.6801 103.9341 107.1248 104.8936 107.4558 106.0409 106.4785 108.9637 104.8043 109.2601 104.9925 110.6828 103.8541 111.2146 103.2943 110.1778 101.6761 109.0919 101.648 110.3107 101.1122 110.9724 100.9422 112.7897 101.6075 113.0281 101.5989 114.2126 100.5341 114.088 100.9856 115.5853 100.1885 116.1479 99.2387 118.1405 98.0901 118.7093 96.6395 119 94.777 118.4117 94.7108 117.4367 92.662 116.3416 92.2139 115.3991 92.4001 114.1757 90.6495 113.0217 92.3516 111.1697 93.8104 108.2618 93.539 107.2358 92.732 106.0916 93.088 105.0265 94.0044 106.5891 95.2136 104.6884 95.4607 103.7222 96.8571 104.7369 97.9688 104.1995 96.7871 103.2278 98.5192 101.6928 97.6752 101.3523 96.9842 100.3658 95.4756 100.8661 94.8652 100.023 93.3244 100.7424 92.6728 102.0418 91.1653 103.3458 90.7365 104.8153 89.5951 105.5466 87.5432 104.196 86.0319 102.5789 86.8422 100.6604 84.0924 101.1867 80.7878 102.522 77.4369 101.4203 75.8395 101.8768 74.2682 101.0204 73.5761 98.9503 72.499 98.7998 72.2862 100.7211 71.3789 101.2407 70.2128 100.3952 70.8741 99.4162 69.6648 97.606 69.0272 97.6155 69.0099 98.8678 67.4225 99.6039 67.5578 101.3038 65.7037 101.2286 65.0344 100.0616 63.5488 98.5501 63.1667 99.9903 61.4373 99.1638 60.1528 98.2266 58.258 98.7752 55.0705 100.2163 53.884 101.7369 53.7921 103.3274 53.1831 104.0727 51.8453 104.8797 50.1355 104.43 49.1117 103.4258 48.7887 101.7179 48.0417 101.2038 46.7799 101.5671 45.5724 100.8898 45.3244 99.5167 46.1994 98.6468 46.0947 96.5072 45.3145 95.5899 44.5717 95.8656 43.4607 95.4912 43.605 94.2121 44.9365 93.9766 44.6527 92.4181 43.2479 91.7112 41.9419 92.0845 41.0051 91.2845 41.9007 90.3212 41.734 89.1341 42.715 87.4047 43.4345 87.4824 44.0182 86.6845 44.029 85.2454 45.5883 84.6418 46.7206 83.2776 48.6809 83.9112 50.9589 80.9668 51.9649 80.9761 51.9295 79.6995 53.1842 79.1358 52.8142 81.1116 55.9592 79.9636 55.7061 81.2896 54.5606 81.8783 55.175 83.4215 56.1704 83.3201 57.761 83.6354 58.2629 84.4895 59.6504 83.8904 59.621 85.157 62.435 84.1377 62.1974 85.1836 63.3449 85.1573 64.8157 85.736 66.3626 85.7927 67.8088 86.2889 68.0158 84.3421 69.9859 82.7181 68.417 82.4803 68.8034 81.484 69.6228 80.8652 69.6972 79.7615 68.1945 79.2235 68.2297 78.1025 66.9265 77.4363 66.3914 75.1497 65.344 77.0314 64.5175 77.6664 63.8874 76.7927 64.0003 73.7786 62.4489 72.4918 62.586 71.7731 60.6082 72.1165 59.7299 73.0869 58.9982 72.6751 59.0852 71.5595 62.762 70.7631 63.9139 69.4203 63.8553 68.3832 62.0575 68.6485 62.1682 67.2984 62.9223 66.1728 62.1773 65.681 59.5129 64.8955 58.5578 66.0707 58.3242 66.8762 56.6165 67.4835 56.0832 66.6999 55.4564 68.9576 54.5263 69.6187 54.5994 70.3874 53.8457 71.3746 52.8912 71.5291 52.6898 70.5335 50.358 70.4195 49.8284 68.7377 48.7955 69.0065 48.1787 68.5586 44.6381 69.3875 42.73 68.8637 41.809 67.8251 41.1273 66.1402 39.1511 63.8853 37.7306 62.6583 36.1385 61.8555 35.1982 61.8262 33.6521 61.0987 32.8624 61.2176 31.59 60.113 31.7195 59.2002 30.8297 58.2794 28.3201 57.1004 27.8127 55.4946 27.2306 55.4288 25.4517 51.5317 24.6285 50.8844 Z" data-anchor-x="60.0" data-anchor-y="60.0" data-fill-id="972" data-name="Martinique" id="972"/>
		

	</g>
	

</svg>
