<?xml version="1.0" ?>
<svg baseProfile="tiny" height="120" stroke-linecap="round" stroke-linejoin="round" version="1.2" viewBox="0 0 120 120" width="120" xmlns="http://www.w3.org/2000/svg">
	

	<g id="dep_glp">
		

		<path d="M 1.7458 52.6888 1.2839 52.5242 1 51.7523 2.0136 51.3152 2.3147 50.5323 2.0099 50.1358 2.4447 49.3164 2.1932 47.4832 2.3508 46.3736 2.6625 45.883 3.5683 45.6997 3.7154 44.9406 2.3697 44.2346 2.6533 43.3821 4.212 42.797 4.9204 42.2191 5.1644 40.9001 4.7571 40.2711 5.4817 39.3242 6.6084 38.6527 6.7323 37.6746 7.4377 37.065 8.8896 36.5586 9.0593 36.2141 10.3122 35.8805 11.3527 36.1733 12.2132 35.9402 13.107 34.5966 14.447 35.3958 16.0093 35.9001 17.2657 36.7455 18.0135 37.803 18.6028 39.1959 19.6935 39.5026 20.6552 39.4443 21.9312 39.7878 22.4767 39.7373 22.9975 40.42 23.7896 40.6861 23.9991 41.6481 24.5984 41.6448 24.9111 40.9226 26.3888 41.7005 26.942 42.855 27.4643 42.5313 29.5606 42.586 30.2493 42.264 30.7991 42.6766 31.7059 42.8868 32.2771 43.3361 31.5518 43.8878 31.8021 44.6535 32.7943 44.5185 33.5906 44.9618 33.6888 45.3884 34.5385 45.4257 35.2534 46.1421 38.3342 45.4316 39.6225 45.7834 39.2818 46.5737 37.9155 47.4724 37.4881 49.2156 36.8029 49.7387 36.0174 49.2885 35.0203 49.7192 34.9153 50.1387 35.3655 51.0317 37.7161 50.2571 37.6436 51.2739 37.1019 52.1389 37.4319 52.5461 38.4808 52.421 39.473 51.1794 39.9357 50.347 40.4652 51.1297 39.7592 51.8515 40.3188 52.8144 41.6003 52.6669 42.8497 51.9963 42.9386 51.1945 43.8037 50.2845 43.6286 49.377 44.3018 49.1401 44.8449 49.7814 46.3959 48.831 47.258 49.322 47.4518 48.8303 48.2039 49.1583 48.6546 50.0042 47.3659 50.0058 47.1856 50.8321 47.7302 51.0133 48.4244 50.5086 49.2417 50.5504 49.2552 51.5784 49.5984 53.2651 49.6808 54.6194 48.6304 55.9394 49.505 57.2819 49.0963 58.7437 49.4154 59.322 50.5387 59.1056 49.9807 60.0398 50.2228 60.6167 49.6567 60.9775 48.9238 60.796 48.4133 59.5664 47.5522 58.6943 46.835 59.1037 46.2049 59.0403 45.9992 58.5204 45.0905 58.5464 44.6908 58.8801 43.6232 58.3633 43.0283 58.8583 42.2511 61.2821 42.1617 62.1829 42.6649 62.7412 42.387 63.9354 43.1239 64.6687 42.1112 65.8352 41.8077 67.012 42.0444 68.1037 42.6479 69.2523 43.7551 69.6101 43.7815 70.6579 43.0902 71.0531 42.828 71.8832 43.3999 72.9632 43.4221 73.9046 44.453 74.3952 44.6279 77.334 46.3999 78.0664 46.872 77.9236 47.4597 78.8099 47.4005 79.1947 45.9452 80.2301 45.588 81.5823 46.2102 82.9912 47.0495 83.2621 47.4144 84.3274 47.3514 85.2448 47.8024 86.0487 47.4605 88.1298 47.8142 88.8342 47.5089 89.5023 47.4727 91.6373 47.6346 92.4129 48.3937 93.0775 48.5062 93.5605 47.8194 94.339 47.409 95.2023 46.8555 95.7769 46.7968 97.3742 46.029 98.1765 45.9155 99.0085 45.0249 99.8416 44.1684 100.1516 43.3926 101.2142 42.5236 101.611 41.8256 102.5496 39.8548 103.8354 39.4881 104.7815 38.7446 105.3993 37.9721 105.5868 37.6412 106.0189 37.6068 107.3867 36.5669 108.3402 36.8687 109.0552 35.7246 109.5402 35.2787 109.3088 34.7484 110.2509 34.0442 110.419 33.3094 110.1495 32.0735 110.187 31.3599 109.7699 30.3578 110.3566 29.2713 111.5694 28.8166 110.8519 28.1453 110.9196 27.3395 111.4166 26.2577 113.1175 25.4366 113.5368 23.4546 113.7702 21.7227 114.2903 20.7187 113.7803 20.0091 112.6362 20.2684 111.4408 19.6384 108.9315 18.7978 107.5936 17.4587 106.818 15.598 105.0022 15.2124 104.2464 13.8265 103.1499 12.9999 101.789 12.9086 99.8331 12.2451 97.5821 11.6628 97.1024 11.2704 96.2929 10.3003 95.127 9.6184 94.712 9.0795 93.7123 8.5422 92.1922 8.8502 91.3216 8.9478 89.9082 8.7253 88.8034 9.0496 88.3386 8.0277 86.166 8.4613 85.6709 7.8931 85.2812 8.1973 84.6549 7.9752 83.9303 7.7568 81.6248 7.8979 80.0054 8.5647 79.3879 8.3884 78.3613 7.6175 77.4626 7.0489 77.3045 7.1603 76.4668 7.5701 75.5278 7.3287 74.1587 7.3887 71.2449 6.7556 70.6164 6.0983 70.7591 5.8703 70.2728 5.9026 68.3996 6.099 67.8991 5.4947 67.0037 5.3885 66.3773 5.6584 64.8596 6.0178 64.4646 6.1195 62.9559 5.8614 62.4904 5.4791 60.6676 4.3263 58.9237 3.6918 58.7409 3.0021 57.7966 2.5648 57.5787 2.315 55.8429 1.6645 54.5921 1.7458 52.6888 Z M 53.3603 61.9245 53.4757 61.0208 52.3983 60.6861 52.6151 60.0792 52.0467 59.1813 50.77 57.6507 50.7459 56.9164 49.603 55.9011 49.8455 54.1996 49.4111 51.5705 49.5794 50.0922 49.0234 48.7866 49.3851 47.9455 49.9514 47.6647 50.8099 48.2529 50.5567 46.9852 49.6982 46.446 50.7216 45.7658 51.4393 44.7443 52.1423 43.1545 51.7492 42.6283 52.1829 41.117 51.8105 40.0927 52.9106 39.0481 53.0235 38.6079 53.788 38.1291 54.1651 37.4975 54.6587 37.8958 56.9093 38.1055 57.4718 36.8549 58.1369 36.1935 59.1052 34.5306 58.1296 33.8748 58.8866 33.3551 58.8794 32.272 59.2214 31.3957 58.4358 30.0607 57.8252 29.9 57.2414 29.1374 56.7563 29.7305 56.0636 29.0453 53.515 27.9699 52.9412 26.889 52.761 25.1356 52.072 24.1963 51.8534 23.2394 52.1088 22.3895 51.336 20.8526 51.3823 20.2247 50.6442 19.5484 51.2631 18.6346 51.6191 17.3324 51.6718 16.4437 52.8919 15.248 53.9605 14.861 54.1665 14.1269 55.0098 13.3365 55.9411 13.2338 56.7983 12.6862 57.5085 10.8024 58.0501 10.8404 59.0317 10.3295 59.5095 9.772 60.7508 9.3777 60.9325 8.851 61.9527 8.0263 62.2744 6.8159 62.7255 6.6377 63.133 5.7192 64.2175 5.7097 65.0039 6.8036 65.2375 7.8241 67.1895 8.002 68.6144 7.7848 68.7438 9.5565 69.2636 9.5534 70.2538 10.1731 70.4783 10.7382 71.3991 11.0182 71.6054 11.75 72.5216 12.475 73.2556 12.6301 74.1134 13.517 74.6148 13.5088 74.9297 14.3572 74.6994 15.2204 75.0583 15.4265 75.5727 16.9822 75.3426 17.7429 76.1782 18.0732 77.087 21.3806 77.108 23.2097 76.3513 23.8855 76.7176 24.5309 76.5099 25.2816 75.7659 25.4794 76.0949 26.4164 75.786 27.7086 76.0121 28.3663 75.7339 29.2872 76.2036 30.2173 76.5673 31.7822 77.3516 33.0778 78.1239 33.784 79.4799 36.1103 79.9365 36.4402 80.5121 37.3984 81.4409 38.1645 82.8741 38.5606 82.6431 39.1775 83.5293 39.285 84.022 39.0628 85.6172 39.5377 86.5304 39.089 87.9324 40.2109 87.9756 39.6227 89.1209 39.4663 90.6862 39.6814 91.4154 40.0837 92.3556 40.1824 93.163 39.7833 94.4485 41.0061 95.3891 40.6283 96.0436 40.6321 96.2441 41.406 97.3095 41.8779 97.78 41.6458 99.8111 42.7609 100.1124 43.3928 101.8001 44.1379 102.9799 44.9753 103.6399 46.155 103.6345 46.753 104.6972 48.1283 105.6646 50.3019 106.1877 50.9006 107.3935 51.7946 110.7723 52.9121 111.0042 53.3771 112.4249 53.8186 112.9294 54.3117 113.763 54.53 114.3649 54.2973 115.5579 54.6435 116.5857 54.513 117.7634 55.4854 119 56.1267 118.5833 56.8648 117.9396 56.1986 115.6225 55.2756 114.619 55.434 111.693 55.1584 110.017 54.6831 108.6201 54.8721 106.041 54.3726 105.0806 54.4087 104.0207 54.1725 103.2312 54.4708 101.7598 55.3273 100.0621 55.2508 98.5393 55.7346 98.3321 56.1503 97.4541 56.5271 95.2647 56.7746 91.9731 57.3407 90.4701 57.1021 88.4171 57.1276 88.3914 57.3982 86.4481 58.2357 84.6546 58.4046 82.7587 58.9794 82.2356 59.7884 81.6157 60.1099 80.9385 60.8831 78.9698 60.6631 78.2666 61.135 78.08 61.9352 77.4422 61.4854 76.0069 62.0168 75.3733 62.933 73.3953 63.4012 72.3474 63.4849 72.0714 63.2407 70.0117 63.5779 69.2499 63.8787 69.1724 64.5368 67.8474 65.2019 66.9123 65.265 66.6829 64.9058 65.8379 65.3303 65.257 65.9804 64.6037 65.5483 63.915 65.6118 63.1455 65.0646 62.0403 64.9797 61.1816 64.3976 59.8219 64.5286 57.0067 63.9781 57.1685 63.017 56.3557 62.2195 55.7356 62.5645 55.0738 62.4876 54.3222 62.9129 53.4006 62.3136 53.3603 61.9245 Z" data-anchor-x="60.0" data-anchor-y="60.0" data-fill-id="971" data-name="Guadeloupe" id="971"/>
		

	</g>
	

</svg>
